<?xml version="1.0" encoding="UTF-8" standalone="no"?>
<!-- Created with Inkscape (http://www.inkscape.org/) -->
<svg
   xmlns:dc="http://purl.org/dc/elements/1.1/"
   xmlns:cc="http://creativecommons.org/ns#"
   xmlns:rdf="http://www.w3.org/1999/02/22-rdf-syntax-ns#"
   xmlns:svg="http://www.w3.org/2000/svg"
   xmlns="http://www.w3.org/2000/svg"
   version="1.1"
   width="60"
   height="60"
   viewBox="-79.5 256.1 154.8125 154.8125"
   id="svg1800"
   xml:space="preserve"><metadata
   id="metadata11"><rdf:RDF><cc:Work
       rdf:about=""><dc:format>image/svg+xml</dc:format><dc:type
         rdf:resource="http://purl.org/dc/dcmitype/StillImage" /><dc:title></dc:title></cc:Work></rdf:RDF></metadata><defs
   id="defs9" />

<path
   d="m 73.5795,333.51725 c 0,41.799 -33.885,75.684 -75.684,75.684 -41.799,0 -75.684,-33.885 -75.684,-75.684 0,-41.799 33.885,-75.684 75.684,-75.684 41.799,0 75.684,33.885 75.684,75.684 l 0,0 z"
   id="path3392"
   style="fill:none;stroke:#000000;stroke-width:3.44020009;stroke-linecap:round;stroke-linejoin:round" />
<g
   transform="translate(-4.0625,-3.3687522)"
   id="g5">
	<path
   d="m 60.015,336.282 c 0,3.123 -0.556,6.057 -1.662,8.802 -1.107,2.744 -2.708,5.149 -4.797,7.214 -2.089,2.065 -4.658,3.689 -7.705,4.873 -3.048,1.184 -6.509,1.775 -10.388,1.775 -2.77,0 -5.59,-0.428 -8.461,-1.284 -2.871,-0.856 -5.741,-2.002 -8.612,-3.438 -2.871,-1.436 -5.742,-3.098 -8.612,-4.986 -2.871,-1.888 -5.692,-3.865 -8.461,-5.93 -2.822,2.014 -5.628,3.953 -8.423,5.817 -2.795,1.863 -5.59,3.525 -8.385,4.985 -2.795,1.46 -5.59,2.632 -8.386,3.513 -2.795,0.882 -5.552,1.322 -8.272,1.322 -4.03,0 -7.543,-0.579 -10.539,-1.738 -2.997,-1.157 -5.489,-2.706 -7.479,-4.646 -1.99,-1.938 -3.475,-4.23 -4.457,-6.874 -0.982,-2.644 -1.473,-5.478 -1.473,-8.499 0,-3.021 0.529,-5.88 1.586,-8.574 1.057,-2.694 2.631,-5.062 4.721,-7.102 2.089,-2.04 4.646,-3.664 7.668,-4.873 3.021,-1.208 6.497,-1.813 10.425,-1.813 2.618,0 5.3,0.415 8.046,1.246 2.745,0.831 5.54,1.951 8.385,3.362 2.845,1.41 5.704,3.047 8.574,4.91 2.871,1.864 5.741,3.803 8.612,5.816 2.72,-1.913 5.502,-3.802 8.348,-5.665 2.844,-1.863 5.715,-3.513 8.612,-4.948 2.896,-1.436 5.791,-2.581 8.688,-3.438 2.896,-0.856 5.753,-1.284 8.575,-1.284 3.978,0 7.453,0.566 10.425,1.7 2.971,1.133 5.451,2.682 7.441,4.646 1.99,1.965 3.486,4.243 4.495,6.837 1.007,2.596 1.511,5.354 1.511,8.274 z m -67.084,0.68 c -2.316,-1.662 -4.57,-3.224 -6.761,-4.684 -2.191,-1.461 -4.332,-2.77 -6.421,-3.929 -2.09,-1.158 -4.13,-2.065 -6.12,-2.72 -1.99,-0.654 -3.94,-0.982 -5.854,-0.982 -1.964,0 -3.714,0.29 -5.25,0.869 -1.537,0.579 -2.833,1.397 -3.891,2.455 -1.057,1.058 -1.863,2.33 -2.417,3.815 -0.555,1.485 -0.831,3.084 -0.831,4.797 0,4.029 1.107,7.126 3.324,9.292 2.216,2.166 5.439,3.249 9.669,3.249 1.711,0 3.524,-0.315 5.439,-0.945 1.914,-0.629 3.902,-1.511 5.968,-2.644 2.065,-1.133 4.192,-2.431 6.383,-3.891 2.192,-1.459 4.446,-3.019 6.762,-4.682 z m 55.526,0.076 c 0,-2.064 -0.328,-3.878 -0.982,-5.439 -0.655,-1.561 -1.548,-2.857 -2.682,-3.891 -1.133,-1.032 -2.505,-1.8 -4.117,-2.303 -1.612,-0.505 -3.374,-0.757 -5.288,-0.757 -1.863,0 -3.777,0.315 -5.741,0.945 -1.964,0.63 -3.979,1.485 -6.043,2.568 -2.066,1.083 -4.206,2.367 -6.421,3.853 -2.217,1.485 -4.483,3.034 -6.799,4.646 2.417,1.662 4.759,3.248 7.025,4.759 2.266,1.511 4.469,2.846 6.61,4.004 2.14,1.158 4.204,2.065 6.195,2.72 1.989,0.654 3.916,0.982 5.779,0.982 1.965,0 3.713,-0.303 5.25,-0.907 1.537,-0.604 2.845,-1.436 3.929,-2.493 1.083,-1.057 1.9,-2.329 2.455,-3.814 0.553,-1.487 0.83,-3.111 0.83,-4.873 z"
   id="path7" />
</g>
</svg>
